<svg version="1.1" xmlns="http://www.w3.org/2000/svg" viewBox="0 0 1080 563" width="1080" height="563">
  <!-- svg-source:excalidraw -->
  
  <defs>
    <style>
      @font-face {
        font-family: "Virgil";
        src: url("https://excalidraw.com/Virgil.woff2");
      }
      @font-face {
        font-family: "Cascadia";
        src: url("https://excalidraw.com/Cascadia.woff2");
      }
    </style>
  </defs>
  <rect x="0" y="0" width="1080" height="563" fill="#ffffff"></rect><g stroke-linecap="round" transform="translate(162 10) rotate(0 90 27.5)"><path d="M0 0 L180 0 L180 55 L0 55" stroke="none" stroke-width="0" fill="#343a40"></path><path d="M0 0 C36.08 0, 72.16 0, 180 0 M0 0 C60.33 0, 120.67 0, 180 0 M180 0 C180 19.26, 180 38.53, 180 55 M180 0 C180 13.18, 180 26.35, 180 55 M180 55 C113.9 55, 47.79 55, 0 55 M180 55 C109.57 55, 39.15 55, 0 55 M0 55 C0 39.55, 0 24.1, 0 0 M0 55 C0 34.29, 0 13.57, 0 0" stroke="#343a40" stroke-width="1" fill="none"></path></g><g transform="translate(167 15) rotate(0 85 12.5)"><text x="85" y="NaN" font-family="Virgil, Segoe UI Emoji" font-size="20px" fill="#ffffff" text-anchor="middle" style="white-space: pre;" direction="ltr">Reactive</text></g><g stroke-linecap="round" transform="translate(344 10) rotate(0 90 27.5)"><path d="M0 0 L180 0 L180 55 L0 55" stroke="none" stroke-width="0" fill="#343a40"></path><path d="M0 0 C36.08 0, 72.17 0, 180 0 M0 0 C68.02 0, 136.04 0, 180 0 M180 0 C180 21.19, 180 42.38, 180 55 M180 0 C180 20.7, 180 41.4, 180 55 M180 55 C108.25 55, 36.51 55, 0 55 M180 55 C118.24 55, 56.49 55, 0 55 M0 55 C0 41, 0 27, 0 0 M0 55 C0 38.27, 0 21.54, 0 0" stroke="#343a40" stroke-width="1" fill="none"></path></g><g transform="translate(349 15) rotate(0 85 12.5)"><text x="85" y="NaN" font-family="Virgil, Segoe UI Emoji" font-size="20px" fill="#ffffff" text-anchor="middle" style="white-space: pre;" direction="ltr">Retrieval</text></g><g stroke-linecap="round" transform="translate(526 10) rotate(0 90 27.5)"><path d="M0 0 L180 0 L180 55 L0 55" stroke="none" stroke-width="0" fill="#343a40"></path><path d="M0 0 C36.08 0, 72.17 0, 180 0 M0 0 C39.71 0, 79.41 0, 180 0 M180 0 C180 12.11, 180 24.23, 180 55 M180 0 C180 17.22, 180 34.45, 180 55 M180 55 C138.61 55, 97.22 55, 0 55 M180 55 C126.92 55, 73.83 55, 0 55 M0 55 C0 42.45, 0 29.9, 0 0 M0 55 C0 42.26, 0 29.51, 0 0" stroke="#343a40" stroke-width="1" fill="none"></path></g><g transform="translate(531 15) rotate(0 85 12.5)"><text x="85" y="NaN" font-family="Virgil, Segoe UI Emoji" font-size="20px" fill="#ffffff" text-anchor="middle" style="white-space: pre;" direction="ltr">Orchestration</text></g><g stroke-linecap="round" transform="translate(708 10) rotate(0 90 27.5)"><path d="M0 0 L180 0 L180 55 L0 55" stroke="none" stroke-width="0" fill="#343a40"></path><path d="M0 0 C36.09 0, 72.17 0, 180 0 M0 0 C47.39 0, 94.79 0, 180 0 M180 0 C180 14.04, 180 28.08, 180 55 M180 0 C180 13.75, 180 27.49, 180 55 M180 55 C132.97 55, 85.94 55, 0 55 M180 55 C135.59 55, 91.18 55, 0 55 M0 55 C0 43.9, 0 32.8, 0 0 M0 55 C0 35.24, 0 15.49, 0 0" stroke="#343a40" stroke-width="1" fill="none"></path></g><g transform="translate(713 15) rotate(0 85 12.5)"><text x="85" y="NaN" font-family="Virgil, Segoe UI Emoji" font-size="20px" fill="#ffffff" text-anchor="middle" style="white-space: pre;" direction="ltr">Validation</text></g><g stroke-linecap="round" transform="translate(890 10) rotate(0 90 27.5)"><path d="M0 0 L180 0 L180 55 L0 55" stroke="none" stroke-width="0" fill="#343a40"></path><path d="M0 0 C36.09 0, 72.17 0, 180 0 M0 0 C55.08 0, 110.16 0, 180 0 M180 0 C180 15.96, 180 31.93, 180 55 M180 0 C180 21.27, 180 42.54, 180 55 M180 55 C127.33 55, 74.65 55, 0 55 M180 55 C108.26 55, 36.52 55, 0 55 M0 55 C0 34.35, 0 13.71, 0 0 M0 55 C0 39.23, 0 23.46, 0 0" stroke="#343a40" stroke-width="1" fill="none"></path></g><g transform="translate(895 15) rotate(0 85 12.5)"><text x="85" y="NaN" font-family="Virgil, Segoe UI Emoji" font-size="20px" fill="#ffffff" text-anchor="middle" style="white-space: pre;" direction="ltr">Models</text></g><g transform="translate(10 107) rotate(0 70 12.5)"><text x="0" y="NaN" font-family="Virgil, Segoe UI Emoji" font-size="20px" fill="#1e1e1e" text-anchor="start" style="white-space: pre;" direction="ltr">Primitives</text></g><g transform="translate(10 229) rotate(0 70 12.5)"><text x="0" y="NaN" font-family="Virgil, Segoe UI Emoji" font-size="20px" fill="#1e1e1e" text-anchor="start" style="white-space: pre;" direction="ltr">Compositions</text></g><g transform="translate(10 351) rotate(0 70 12.5)"><text x="0" y="NaN" font-family="Virgil, Segoe UI Emoji" font-size="20px" fill="#1e1e1e" text-anchor="start" style="white-space: pre;" direction="ltr">Deployment</text></g><g transform="translate(10 473) rotate(0 70 12.5)"><text x="0" y="NaN" font-family="Virgil, Segoe UI Emoji" font-size="20px" fill="#1e1e1e" text-anchor="start" style="white-space: pre;" direction="ltr">Emerging</text></g><g stroke-linecap="round" transform="translate(162 67) rotate(0 90 60)"><path d="M0 0 L180 0 L180 120 L0 120" stroke="none" stroke-width="0" fill="#ffffff"></path><path d="M0 0 C36.16 0, 72.32 0, 180 0 M0 0 C48.67 0, 97.34 0, 180 0 M180 0 C180 36.06, 180 72.11, 180 120 M180 0 C180 33.5, 180 67, 180 120 M180 120 C119.79 120, 59.58 120, 0 120 M180 120 C111.15 120, 42.29 120, 0 120 M0 120 C0 76.58, 0 33.15, 0 0 M0 120 C0 77.61, 0 35.22, 0 0" stroke="#dee2e6" stroke-width="1" fill="none"></path></g><g transform="translate(167 87) rotate(0 85 25)"><text x="85" y="NaN" font-family="Virgil, Segoe UI Emoji" font-size="18px" fill="#1e1e1e" text-anchor="middle" style="white-space: pre;" direction="ltr">Pr</text><text x="85" y="NaN" font-family="Virgil, Segoe UI Emoji" font-size="18px" fill="#1e1e1e" text-anchor="middle" style="white-space: pre;" direction="ltr">Prompts</text></g><g stroke-linecap="round" transform="translate(344 67) rotate(0 90 60)"><path d="M0 0 L180 0 L180 120 L0 120" stroke="none" stroke-width="0" fill="#ffffff"></path><path d="M0 0 C36.16 0, 72.33 0, 180 0 M0 0 C56.35 0, 112.71 0, 180 0 M180 0 C180 40.26, 180 80.51, 180 120 M180 0 C180 25.91, 180 51.83, 180 120 M180 120 C114.15 120, 48.3 120, 0 120 M180 120 C119.82 120, 59.64 120, 0 120 M0 120 C0 79.74, 0 39.48, 0 0 M0 120 C0 86.31, 0 52.61, 0 0" stroke="#dee2e6" stroke-width="1" fill="none"></path></g><g transform="translate(349 87) rotate(0 85 25)"><text x="85" y="NaN" font-family="Virgil, Segoe UI Emoji" font-size="18px" fill="#1e1e1e" text-anchor="middle" style="white-space: pre;" direction="ltr">Em</text><text x="85" y="NaN" font-family="Virgil, Segoe UI Emoji" font-size="18px" fill="#1e1e1e" text-anchor="middle" style="white-space: pre;" direction="ltr">Embeddings</text></g><g stroke-linecap="round" transform="translate(526 67) rotate(0 90 60)"><path d="M0 0 L180 0 L180 120 L0 120" stroke="none" stroke-width="0" fill="#f8f9fa"></path><path d="M0 0 C36.17 0, 72.33 0, 180 0 M0 0 C64.04 0, 128.08 0, 180 0 M180 0 C180 44.46, 180 88.91, 180 120 M180 0 C180 42.33, 180 84.66, 180 120 M180 120 C108.51 120, 37.01 120, 0 120 M180 120 C128.49 120, 76.98 120, 0 120 M0 120 C0 82.91, 0 45.82, 0 0 M0 120 C0 95, 0 70, 0 0" stroke="#dee2e6" stroke-width="1" fill="none"></path></g><g stroke-linecap="round" transform="translate(708 67) rotate(0 90 60)"><path d="M0 0 L180 0 L180 120 L0 120" stroke="none" stroke-width="0" fill="#f8f9fa"></path><path d="M0 0 C36.17 0, 72.33 0, 180 0 M0 0 C67.88 0, 135.77 0, 180 0 M180 0 C180 46.56, 180 93.11, 180 120 M180 0 C180 26.54, 180 53.07, 180 120 M180 120 C141.69 120, 103.37 120, 0 120 M180 120 C132.83 120, 85.65 120, 0 120 M0 120 C0 72.49, 0 24.98, 0 0 M0 120 C0 75.35, 0 30.7, 0 0" stroke="#dee2e6" stroke-width="1" fill="none"></path></g><g stroke-linecap="round" transform="translate(890 67) rotate(0 90 60)"><path d="M0 0 L180 0 L180 120 L0 120" stroke="none" stroke-width="0" fill="#ffffff"></path><path d="M0 0 C36.17 0, 72.33 0, 180 0 M0 0 C71.73 0, 143.46 0, 180 0 M180 0 C180 24.66, 180 49.31, 180 120 M180 0 C180 34.74, 180 69.49, 180 120 M180 120 C138.86 120, 97.73 120, 0 120 M180 120 C137.16 120, 94.32 120, 0 120 M0 120 C0 86.07, 0 52.15, 0 0 M0 120 C0 79.7, 0 39.4, 0 0" stroke="#dee2e6" stroke-width="1" fill="none"></path></g><g transform="translate(895 87) rotate(0 85 25)"><text x="85" y="NaN" font-family="Virgil, Segoe UI Emoji" font-size="18px" fill="#1e1e1e" text-anchor="middle" style="white-space: pre;" direction="ltr">Lg</text><text x="85" y="NaN" font-family="Virgil, Segoe UI Emoji" font-size="18px" fill="#1e1e1e" text-anchor="middle" style="white-space: pre;" direction="ltr">LLMs</text></g><g stroke-linecap="round" transform="translate(162 189) rotate(0 90 60)"><path d="M0 0 L180 0 L180 120 L0 120" stroke="none" stroke-width="0" fill="#ffffff"></path><path d="M0 0 C36.17 0, 72.34 0, 180 0 M0 0 C51.1 0, 102.2 0, 180 0 M180 0 C180 33.06, 180 66.12, 180 120 M180 0 C180 43.57, 180 87.15, 180 120 M180 120 C127.58 120, 75.16 120, 0 120 M180 120 C118.5 120, 57.01 120, 0 120 M0 120 C0 92.41, 0 64.81, 0 0 M0 120 C0 73.09, 0 26.18, 0 0" stroke="#dee2e6" stroke-width="1" fill="none"></path></g><g transform="translate(167 209) rotate(0 85 25)"><text x="85" y="NaN" font-family="Virgil, Segoe UI Emoji" font-size="18px" fill="#1e1e1e" text-anchor="middle" style="white-space: pre;" direction="ltr">Fc</text><text x="85" y="NaN" font-family="Virgil, Segoe UI Emoji" font-size="18px" fill="#1e1e1e" text-anchor="middle" style="white-space: pre;" direction="ltr">Function Calling</text></g><g stroke-linecap="round" transform="translate(344 189) rotate(0 90 60)"><path d="M0 0 L180 0 L180 120 L0 120" stroke="none" stroke-width="0" fill="#ffffff"></path><path d="M0 0 C36.17 0, 72.34 0, 180 0 M0 0 C58.79 0, 117.58 0, 180 0 M180 0 C180 37.26, 180 74.52, 180 120 M180 0 C180 35.99, 180 71.98, 180 120 M180 120 C121.94 120, 63.88 120, 0 120 M180 120 C127.18 120, 74.35 120, 0 120 M0 120 C0 95.57, 0 71.14, 0 0 M0 120 C0 81.79, 0 43.57, 0 0" stroke="#dee2e6" stroke-width="1" fill="none"></path></g><g transform="translate(349 209) rotate(0 85 25)"><text x="85" y="NaN" font-family="Virgil, Segoe UI Emoji" font-size="18px" fill="#1e1e1e" text-anchor="middle" style="white-space: pre;" direction="ltr">Vx</text><text x="85" y="NaN" font-family="Virgil, Segoe UI Emoji" font-size="18px" fill="#1e1e1e" text-anchor="middle" style="white-space: pre;" direction="ltr">Vector Databases</text></g><g stroke-linecap="round" transform="translate(526 189) rotate(0 90 60)"><path d="M0 0 L180 0 L180 120 L0 120" stroke="none" stroke-width="0" fill="#ffffff"></path><path d="M0 0 C36.17 0, 72.35 0, 180 0 M0 0 C66.47 0, 132.95 0, 180 0 M180 0 C180 41.46, 180 82.92, 180 120 M180 0 C180 28.4, 180 56.81, 180 120 M180 120 C116.3 120, 52.59 120, 0 120 M180 120 C135.85 120, 91.69 120, 0 120 M0 120 C0 74.74, 0 29.47, 0 0 M0 120 C0 90.48, 0 60.96, 0 0" stroke="#dee2e6" stroke-width="1" fill="none"></path></g><g transform="translate(531 209) rotate(0 85 25)"><text x="85" y="NaN" font-family="Virgil, Segoe UI Emoji" font-size="18px" fill="#1e1e1e" text-anchor="middle" style="white-space: pre;" direction="ltr">Rg</text><text x="85" y="NaN" font-family="Virgil, Segoe UI Emoji" font-size="18px" fill="#1e1e1e" text-anchor="middle" style="white-space: pre;" direction="ltr">RAG</text></g><g stroke-linecap="round" transform="translate(708 189) rotate(0 90 60)"><path d="M0 0 L180 0 L180 120 L0 120" stroke="none" stroke-width="0" fill="#ffffff"></path><path d="M0 0 C36.17 0, 72.35 0, 180 0 M0 0 C38.16 0, 76.32 0, 180 0 M180 0 C180 45.66, 180 91.32, 180 120 M180 0 C180 44.82, 180 89.64, 180 120 M180 120 C110.65 120, 41.31 120, 0 120 M180 120 C108.52 120, 37.04 120, 0 120 M0 120 C0 77.9, 0 35.8, 0 0 M0 120 C0 75.18, 0 30.36, 0 0" stroke="#dee2e6" stroke-width="1" fill="none"></path></g><g transform="translate(713 209) rotate(0 85 25)"><text x="85" y="NaN" font-family="Virgil, Segoe UI Emoji" font-size="18px" fill="#1e1e1e" text-anchor="middle" style="white-space: pre;" direction="ltr">Gr</text><text x="85" y="NaN" font-family="Virgil, Segoe UI Emoji" font-size="18px" fill="#1e1e1e" text-anchor="middle" style="white-space: pre;" direction="ltr">Guardrails</text></g><g stroke-linecap="round" transform="translate(890 189) rotate(0 90 60)"><path d="M0 0 L180 0 L180 120 L0 120" stroke="none" stroke-width="0" fill="#ffffff"></path><path d="M0 0 C36.18 0, 72.35 0, 180 0 M0 0 C45.85 0, 91.7 0, 180 0 M180 0 C180 25.86, 180 51.72, 180 120 M180 0 C180 37.23, 180 74.47, 180 120 M180 120 C141.01 120, 102.02 120, 0 120 M180 120 C117.19 120, 54.38 120, 0 120 M0 120 C0 81.07, 0 42.14, 0 0 M0 120 C0 83.87, 0 47.75, 0 0" stroke="#dee2e6" stroke-width="1" fill="none"></path></g><g transform="translate(895 209) rotate(0 85 25)"><text x="85" y="NaN" font-family="Virgil, Segoe UI Emoji" font-size="18px" fill="#1e1e1e" text-anchor="middle" style="white-space: pre;" direction="ltr">Mm</text><text x="85" y="NaN" font-family="Virgil, Segoe UI Emoji" font-size="18px" fill="#1e1e1e" text-anchor="middle" style="white-space: pre;" direction="ltr">Multimodal</text></g><g stroke-linecap="round" transform="translate(162 311) rotate(0 90 60)"><path d="M0 0 L180 0 L180 120 L0 120" stroke="none" stroke-width="0" fill="#ffffff"></path><path d="M0 0 C36.18 0, 72.36 0, 180 0 M0 0 C53.53 0, 107.07 0, 180 0 M180 0 C180 30.06, 180 60.12, 180 120 M180 0 C180 29.65, 180 59.3, 180 120 M180 120 C135.37 120, 90.74 120, 0 120 M180 120 C125.86 120, 71.72 120, 0 120 M0 120 C0 84.23, 0 48.47, 0 0 M0 120 C0 92.57, 0 65.14, 0 0" stroke="#dee2e6" stroke-width="1" fill="none"></path></g><g transform="translate(167 331) rotate(0 85 25)"><text x="85" y="NaN" font-family="Virgil, Segoe UI Emoji" font-size="18px" fill="#1e1e1e" text-anchor="middle" style="white-space: pre;" direction="ltr">Ag</text><text x="85" y="NaN" font-family="Virgil, Segoe UI Emoji" font-size="18px" fill="#1e1e1e" text-anchor="middle" style="white-space: pre;" direction="ltr">Agent</text></g><g stroke-linecap="round" transform="translate(344 311) rotate(0 90 60)"><path d="M0 0 L180 0 L180 120 L0 120" stroke="none" stroke-width="0" fill="#ffffff"></path><path d="M0 0 C36.18 0, 72.36 0, 180 0 M0 0 C61.22 0, 122.44 0, 180 0 M180 0 C180 34.26, 180 68.52, 180 120 M180 0 C180 46.06, 180 92.13, 180 120 M180 120 C129.73 120, 79.46 120, 0 120 M180 120 C134.53 120, 89.07 120, 0 120 M0 120 C0 87.4, 0 54.8, 0 0 M0 120 C0 77.27, 0 34.53, 0 0" stroke="#dee2e6" stroke-width="1" fill="none"></path></g><g transform="translate(349 331) rotate(0 85 25)"><text x="85" y="NaN" font-family="Virgil, Segoe UI Emoji" font-size="18px" fill="#1e1e1e" text-anchor="middle" style="white-space: pre;" direction="ltr">Ft</text><text x="85" y="NaN" font-family="Virgil, Segoe UI Emoji" font-size="18px" fill="#1e1e1e" text-anchor="middle" style="white-space: pre;" direction="ltr">Fine-tuning</text></g><g stroke-linecap="round" transform="translate(526 311) rotate(0 90 60)"><path d="M0 0 L180 0 L180 120 L0 120" stroke="none" stroke-width="0" fill="#ffffff"></path><path d="M0 0 C36.18 0, 72.36 0, 180 0 M0 0 C68.91 0, 137.82 0, 180 0 M180 0 C180 38.46, 180 76.92, 180 120 M180 0 C180 38.48, 180 76.96, 180 120 M180 120 C124.09 120, 68.17 120, 0 120 M180 120 C143.2 120, 106.41 120, 0 120 M0 120 C0 90.57, 0 61.13, 0 0 M0 120 C0 85.96, 0 51.93, 0 0" stroke="#dee2e6" stroke-width="1" fill="none"></path></g><g transform="translate(531 331) rotate(0 85 25)"><text x="85" y="NaN" font-family="Virgil, Segoe UI Emoji" font-size="18px" fill="#1e1e1e" text-anchor="middle" style="white-space: pre;" direction="ltr">Fw</text><text x="85" y="NaN" font-family="Virgil, Segoe UI Emoji" font-size="18px" fill="#1e1e1e" text-anchor="middle" style="white-space: pre;" direction="ltr">Frameworks</text></g><g stroke-linecap="round" transform="translate(708 311) rotate(0 90 60)"><path d="M0 0 L180 0 L180 120 L0 120" stroke="none" stroke-width="0" fill="#ffffff"></path><path d="M0 0 C36.18 0, 72.37 0, 180 0 M0 0 C40.59 0, 81.19 0, 180 0 M180 0 C180 42.66, 180 85.33, 180 120 M180 0 C180 30.89, 180 61.79, 180 120 M180 120 C118.44 120, 56.89 120, 0 120 M180 120 C115.88 120, 51.75 120, 0 120 M0 120 C0 93.73, 0 67.46, 0 0 M0 120 C0 94.66, 0 69.32, 0 0" stroke="#dee2e6" stroke-width="1" fill="none"></path></g><g transform="translate(713 331) rotate(0 85 25)"><text x="85" y="NaN" font-family="Virgil, Segoe UI Emoji" font-size="18px" fill="#1e1e1e" text-anchor="middle" style="white-space: pre;" direction="ltr">Re</text><text x="85" y="NaN" font-family="Virgil, Segoe UI Emoji" font-size="18px" fill="#1e1e1e" text-anchor="middle" style="white-space: pre;" direction="ltr">Red Teaming</text></g><g stroke-linecap="round" transform="translate(890 311) rotate(0 90 60)"><path d="M0 0 L180 0 L180 120 L0 120" stroke="none" stroke-width="0" fill="#ffffff"></path><path d="M0 0 C36.18 0, 72.37 0, 180 0 M0 0 C48.28 0, 96.56 0, 180 0 M180 0 C180 46.86, 180 93.73, 180 120 M180 0 C180 47.31, 180 94.62, 180 120 M180 120 C112.8 120, 45.6 120, 0 120 M180 120 C124.55 120, 69.1 120, 0 120 M0 120 C0 72.9, 0 25.79, 0 0 M0 120 C0 79.35, 0 38.71, 0 0" stroke="#dee2e6" stroke-width="1" fill="none"></path></g><g transform="translate(895 331) rotate(0 85 25)"><text x="85" y="NaN" font-family="Virgil, Segoe UI Emoji" font-size="18px" fill="#1e1e1e" text-anchor="middle" style="white-space: pre;" direction="ltr">Sm</text><text x="85" y="NaN" font-family="Virgil, Segoe UI Emoji" font-size="18px" fill="#1e1e1e" text-anchor="middle" style="white-space: pre;" direction="ltr">Small Models</text></g><g stroke-linecap="round" transform="translate(162 433) rotate(0 90 60)"><path d="M0 0 L180 0 L180 120 L0 120" stroke="none" stroke-width="0" fill="#ffffff"></path><path d="M0 0 C36.19 0, 72.37 0, 180 0 M0 0 C55.97 0, 111.94 0, 180 0 M180 0 C180 27.06, 180 54.13, 180 120 M180 0 C180 39.72, 180 79.45, 180 120 M180 120 C143.16 120, 106.32 120, 0 120 M180 120 C133.22 120, 86.44 120, 0 120 M0 120 C0 76.06, 0 32.13, 0 0 M0 120 C0 88.05, 0 56.1, 0 0" stroke="#dee2e6" stroke-width="1" fill="none"></path></g><g transform="translate(167 453) rotate(0 85 25)"><text x="85" y="NaN" font-family="Virgil, Segoe UI Emoji" font-size="18px" fill="#1e1e1e" text-anchor="middle" style="white-space: pre;" direction="ltr">Ma</text><text x="85" y="NaN" font-family="Virgil, Segoe UI Emoji" font-size="18px" fill="#1e1e1e" text-anchor="middle" style="white-space: pre;" direction="ltr">Multi-agent</text></g><g stroke-linecap="round" transform="translate(344 433) rotate(0 90 60)"><path d="M0 0 L180 0 L180 120 L0 120" stroke="none" stroke-width="0" fill="#ffffff"></path><path d="M0 0 C36.19 0, 72.38 0, 180 0 M0 0 C63.66 0, 127.31 0, 180 0 M180 0 C180 31.26, 180 62.53, 180 120 M180 0 C180 32.14, 180 64.28, 180 120 M180 120 C137.52 120, 95.03 120, 0 120 M180 120 C141.89 120, 103.78 120, 0 120 M0 120 C0 79.23, 0 38.46, 0 0 M0 120 C0 72.75, 0 25.49, 0 0" stroke="#dee2e6" stroke-width="1" fill="none"></path></g><g transform="translate(349 453) rotate(0 85 25)"><text x="85" y="NaN" font-family="Virgil, Segoe UI Emoji" font-size="18px" fill="#1e1e1e" text-anchor="middle" style="white-space: pre;" direction="ltr">Sy</text><text x="85" y="NaN" font-family="Virgil, Segoe UI Emoji" font-size="18px" fill="#1e1e1e" text-anchor="middle" style="white-space: pre;" direction="ltr">Synthetic Data</text></g><g stroke-linecap="round" transform="translate(526 433) rotate(0 90 60)"><path d="M0 0 L180 0 L180 120 L0 120" stroke="none" stroke-width="0" fill="#f8f9fa"></path><path d="M0 0 C36.19 0, 72.38 0, 180 0 M0 0 C71.34 0, 142.68 0, 180 0 M180 0 C180 35.46, 180 70.93, 180 120 M180 0 C180 24.55, 180 49.11, 180 120 M180 120 C131.88 120, 83.75 120, 0 120 M180 120 C114.56 120, 49.12 120, 0 120 M0 120 C0 82.39, 0 44.79, 0 0 M0 120 C0 81.44, 0 42.89, 0 0" stroke="#dee2e6" stroke-width="1" fill="none"></path></g><g stroke-linecap="round" transform="translate(708 433) rotate(0 90 60)"><path d="M0 0 L180 0 L180 120 L0 120" stroke="none" stroke-width="0" fill="#ffffff"></path><path d="M0 0 C36.19 0, 72.38 0, 180 0 M0 0 C43.03 0, 86.06 0, 180 0 M180 0 C180 39.67, 180 79.33, 180 120 M180 0 C180 40.97, 180 81.94, 180 120 M180 120 C126.23 120, 72.47 120, 0 120 M180 120 C123.23 120, 66.47 120, 0 120 M0 120 C0 85.56, 0 51.12, 0 0 M0 120 C0 90.14, 0 60.28, 0 0" stroke="#dee2e6" stroke-width="1" fill="none"></path></g><g transform="translate(713 453) rotate(0 85 25)"><text x="85" y="NaN" font-family="Virgil, Segoe UI Emoji" font-size="18px" fill="#1e1e1e" text-anchor="middle" style="white-space: pre;" direction="ltr">In</text><text x="85" y="NaN" font-family="Virgil, Segoe UI Emoji" font-size="18px" fill="#1e1e1e" text-anchor="middle" style="white-space: pre;" direction="ltr">Interoperability</text></g><g stroke-linecap="round" transform="translate(890 433) rotate(0 90 60)"><path d="M0 0 L180 0 L180 120 L0 120" stroke="none" stroke-width="0" fill="#ffffff"></path><path d="M0 0 C36.19 0, 72.39 0, 180 0 M0 0 C50.72 0, 101.43 0, 180 0 M180 0 C180 43.87, 180 87.73, 180 120 M180 0 C180 33.38, 180 66.77, 180 120 M180 120 C120.59 120, 61.18 120, 0 120 M180 120 C131.9 120, 83.81 120, 0 120 M0 120 C0 88.73, 0 57.45, 0 0 M0 120 C0 74.84, 0 29.67, 0 0" stroke="#dee2e6" stroke-width="1" fill="none"></path></g><g transform="translate(895 453) rotate(0 85 25)"><text x="85" y="NaN" font-family="Virgil, Segoe UI Emoji" font-size="18px" fill="#1e1e1e" text-anchor="middle" style="white-space: pre;" direction="ltr">Th</text><text x="85" y="NaN" font-family="Virgil, Segoe UI Emoji" font-size="18px" fill="#1e1e1e" text-anchor="middle" style="white-space: pre;" direction="ltr">Thinking Models</text></g></svg>